# Blender v2.76 (sub 0) OBJ File: ''
# www.blender.org
mtllib Navi.mtl
o Navi
v 0.090647 -4.282883 2.438833
v 2.227477 -3.367485 1.956168
v -1.539357 -1.596637 0.309712
v -1.539357 -1.596637 0.309712
v 2.227477 -3.367485 1.956168
v 0.594941 -0.677549 -0.176030
v 2.157443 -3.367485 -1.880298
v 0.004045 -4.282883 -2.284099
v 0.604049 -0.677549 0.312222
v 0.604049 -0.677549 0.312222
v 0.004045 -4.282883 -2.284099
v -1.546930 -1.596637 -0.094817
v -1.227731 -5.039607 4.020715
v -0.067121 2.701207 3.978637
v -0.209096 2.701207 0.063570
v -1.227731 -5.039607 4.020715
v -0.209096 2.701207 0.063570
v -1.369633 -5.039607 0.105684
v -1.369633 -5.039607 0.105684
v -0.209096 2.701207 0.063570
v -0.350703 2.701207 -3.843623
v -1.369633 -5.039607 0.105684
v -0.350703 2.701207 -3.843623
v -1.511391 -5.039607 -3.801569
v 0.469439 -2.084338 0.333275
v 4.294714 2.761230 4.759045
v -1.798660 0.194487 -0.200888
v -1.798660 0.194487 -0.200888
v 4.294714 2.761230 4.759045
v 2.032770 5.039607 4.220347
v 4.120215 2.761230 -4.759045
v 0.459624 -2.084338 -0.192224
v 1.879983 5.039607 -4.137352
v 1.879983 5.039607 -4.137352
v 0.459624 -2.084338 -0.192224
v -1.786923 0.194487 0.425014
vt 0.070365 0.921053
vt 0.070365 0.078947
vt 0.301308 0.921053
vt 0.301308 0.078947
vt 0.321606 0.078947
vt 0.083897 0.078947
vt 0.281010 0.921053
vt 0.043302 0.921053
vt 0.956698 0.078947
vt 0.956698 0.921053
vt 0.725756 0.921053
vt 0.725756 0.078947
vt 0.724609 0.078125
vt 0.724609 0.919922
vt 0.955078 0.919922
vt 0.955078 0.078125
vn -0.511900 -0.322900 0.796000
vn -0.512900 -0.320900 0.796200
vn -0.072400 0.592200 0.802500
vn -0.542500 -0.321600 -0.776100
vn -0.540600 -0.322500 -0.777000
vn -0.988300 0.148400 0.035800
vn -0.102000 0.592400 -0.799100
vn -0.101900 0.592400 -0.799100
usemtl Material.098_Navi_grp.png
s 1
f 25/1/1 26/2/1 27/3/1
f 28/3/2 29/2/2 30/4/2
usemtl Material.102_Navi_grp.png
f 1/5/3 2/6/3 3/7/3
f 4/7/3 5/6/3 6/8/3
usemtl Material.097_Navi_grp.png
f 31/2/4 32/1/4 33/4/4
f 34/4/5 35/1/5 36/3/5
usemtl Material.099_Navi_grp.png
f 19/9/6 20/10/6 21/11/6
f 22/9/6 23/11/6 24/12/6
usemtl Material.101_Navi_grp.png
f 7/6/7 8/5/7 9/8/7
f 10/8/8 11/5/8 12/7/8
usemtl None_Navi_grp.png
f 13/13/6 14/14/6 15/15/6
f 16/13/6 17/15/6 18/16/6
